<svg width="48" height="48" viewBox="0 0 48 48" fill="none" xmlns="http://www.w3.org/2000/svg">
<g id="Logo facebook 1">
<path id="Vector" d="M43.2001 24C43.1995 20.3309 42.1476 16.7388 40.169 13.6489C38.1903 10.5591 35.3678 8.10087 32.0354 6.56532C28.7031 5.02977 25.0006 4.48118 21.3662 4.9845C17.7318 5.48782 14.3177 7.02198 11.5281 9.40534C8.73855 11.7887 6.69028 14.9215 5.62582 18.4328C4.56135 21.944 4.52527 25.6868 5.52184 29.218C6.51842 32.7491 8.50591 35.9208 11.249 38.3575C13.9922 40.7942 17.376 42.3939 21 42.9672L21 29.55H16.1256V24H21V19.77C21 14.958 23.8668 12.3 28.2516 12.3C29.6917 12.3199 31.1283 12.4451 32.5501 12.6744V17.4H30.1285C29.7158 17.3452 29.2961 17.3839 28.9005 17.5134C28.5048 17.6428 28.1434 17.8596 27.8429 18.1478C27.5425 18.4359 27.3107 18.7879 27.1648 19.1778C27.0189 19.5677 26.9626 19.9854 27 20.4V24H32.3256L31.4736 29.55H27L27 42.9672C31.5166 42.2527 35.6299 39.9497 38.5997 36.4726C41.5695 32.9955 43.2008 28.5727 43.2001 24Z" fill="#2E6FE8"/>
</g>
</svg>
